<?xml version="1.0" encoding="UTF-8"?>
<svg width="120" height="40" viewBox="0 0 120 40" fill="none" xmlns="http://www.w3.org/2000/svg">
  <path d="M20.5 10C23.5376 10 26 12.4624 26 15.5C26 18.5376 23.5376 21 20.5 21C17.4624 21 15 18.5376 15 15.5C15 12.4624 17.4624 10 20.5 10Z" fill="#FF3366"/>
  <path d="M35.5 19C38.5376 19 41 21.4624 41 24.5C41 27.5376 38.5376 30 35.5 30C32.4624 30 30 27.5376 30 24.5C30 21.4624 32.4624 19 35.5 19Z" fill="#33CC66"/>
  <path d="M50.5 10C53.5376 10 56 12.4624 56 15.5C56 18.5376 53.5376 21 50.5 21C47.4624 21 45 18.5376 45 15.5C45 12.4624 47.4624 10 50.5 10Z" fill="#3366FF"/>
  <text x="65" y="25" font-family="Arial" font-size="24" font-weight="bold" fill="#333333">YuJa</text>
</svg> 